<svg data-v-0dd9719b="" version="1.0" xmlns="http://www.w3.org/2000/svg" xmlns:xlink="http://www.w3.org/1999/xlink" width="100%" height="100%" viewBox="0 0 340.000000 250.000000" preserveAspectRatio="xMidYMid meet" color-interpolation-filters="sRGB" style="margin: auto;"> <rect data-v-0dd9719b="" x="0" y="0" width="100%" height="100%" fill="#0a0619" fill-opacity="1" class="background"></rect> <!----> <g data-v-0dd9719b="" fill="#ffffff" class="iconlinesvg-g iconlinesvg" transform="translate(94.16000366210938,94.28199768066406)"><g class="tp-name" transform="translate(0,0)"><g transform="translate(0, 0)"><g data-gra="path-name" fill="#ffffff" transform="scale(1)"><path d="M16.44-42L16.44-42Q25.44-42 30.21-38.70Q34.98-35.40 34.98-28.62L34.98-28.62Q34.98-20.16 26.64-17.16L26.64-17.16Q27.78-15.78 29.22-13.80Q30.66-11.82 32.16-9.51Q33.66-7.20 35.04-4.77Q36.42-2.34 37.50 0L37.50 0L29.04 0Q27.90-2.16 26.58-4.35Q25.26-6.54 23.91-8.61Q22.56-10.68 21.24-12.51Q19.92-14.34 18.78-15.78L18.78-15.78Q17.94-15.72 17.34-15.72Q16.74-15.72 16.20-15.72L16.20-15.72L12.54-15.72L12.54 0L4.98 0L4.98-40.98Q7.74-41.58 10.86-41.79Q13.98-42 16.44-42ZM16.98-35.46L16.98-35.46Q14.58-35.46 12.54-35.28L12.54-35.28L12.54-21.84L15.84-21.84Q18.60-21.84 20.70-22.14Q22.80-22.44 24.21-23.22Q25.62-24 26.34-25.32Q27.06-26.64 27.06-28.68L27.06-28.68Q27.06-30.60 26.34-31.92Q25.62-33.24 24.27-34.02Q22.92-34.80 21.06-35.13Q19.20-35.46 16.98-35.46Z" transform="translate(-4.9799999999999995, 46.559999999999995)"></path></g></g><g transform="translate(35, 6.28817351826482)"><g><g class="imagesvg"><g><rect fill="#ffffff" fill-opacity="0" stroke-width="2" x="0" y="0" width="34.70399999999999" height="34.703652963470354" class="image-rect"></rect> <svg x="0" y="0" width="34.70399999999999" height="34.703652963470354" filtersec="colorsb3451617961" class="image-svg-svg primary" style="overflow: visible;"><svg xmlns="http://www.w3.org/2000/svg" viewBox="0.0020000000949949026 0.003000000026077032 99.99500274658203 99.99400329589844"><g fill="#ffffff"><path d="M50 .003L24.373 50.628h51.254zM18.122 63.124L.002 99.997h61.245l-23.75-36.873zM81.878 63.124h-29.38l23.129 36.873h24.37z"></path></g></svg></svg> <!----></g></g></g></g><g transform="translate(72, 0)"><g data-gra="path-name" fill="#ffffff" transform="scale(1)"><path d="M11.88-46.56L11.88-19.14Q13.26-20.58 14.82-22.23Q16.38-23.88 17.88-25.53Q19.38-27.18 20.73-28.71Q22.08-30.24 23.04-31.38L23.04-31.38L31.62-31.38Q28.62-28.02 25.29-24.42Q21.96-20.82 18.60-17.40L18.60-17.40Q20.40-15.90 22.38-13.77Q24.36-11.64 26.22-9.24Q28.08-6.84 29.70-4.44Q31.32-2.04 32.40 0L32.40 0L24 0Q22.92-1.86 21.51-3.90Q20.10-5.94 18.48-7.86Q16.86-9.78 15.18-11.49Q13.50-13.20 11.88-14.40L11.88-14.40L11.88 0L4.62 0L4.62-45.36L11.88-46.56Z" transform="translate(-4.62, 46.559999999999995)"></path></g></g><g transform="translate(103, 0)"><g data-gra="path-name" fill="#ffffff" transform="scale(1)"><path d="M15.66-5.10L15.66-5.10Q19.02-5.10 20.76-5.46L20.76-5.46L20.76-13.50Q20.16-13.68 19.02-13.86Q17.88-14.04 16.50-14.04L16.50-14.04Q15.30-14.04 14.07-13.86Q12.84-13.68 11.85-13.20Q10.86-12.72 10.26-11.85Q9.66-10.98 9.66-9.66L9.66-9.66Q9.66-7.08 11.28-6.09Q12.90-5.10 15.66-5.10ZM15.06-32.16L15.06-32.16Q18.66-32.16 21.12-31.26Q23.58-30.36 25.05-28.74Q26.52-27.12 27.15-24.81Q27.78-22.50 27.78-19.74L27.78-19.74L27.78-0.72Q26.10-0.36 22.71 0.15Q19.32 0.66 15.06 0.66L15.06 0.66Q12.24 0.66 9.90 0.12Q7.56-0.42 5.91-1.62Q4.26-2.82 3.33-4.74Q2.40-6.66 2.40-9.48L2.40-9.48Q2.40-12.18 3.45-14.04Q4.50-15.90 6.30-17.07Q8.10-18.24 10.47-18.75Q12.84-19.26 15.42-19.26L15.42-19.26Q16.62-19.26 17.94-19.11Q19.26-18.96 20.76-18.60L20.76-18.60L20.76-19.80Q20.76-21.06 20.46-22.20Q20.16-23.34 19.41-24.21Q18.66-25.08 17.43-25.56Q16.20-26.04 14.34-26.04L14.34-26.04Q11.82-26.04 9.72-25.68Q7.62-25.32 6.30-24.84L6.30-24.84L5.40-30.72Q6.78-31.20 9.42-31.68Q12.06-32.16 15.06-32.16Z" transform="translate(-2.4, 46.559999999999995)"></path></g></g><g transform="translate(132, 0)"><g data-gra="path-name" fill="#ffffff" transform="scale(1)"><path d="M4.26-12.48L4.26-39.66L11.52-40.86L11.52-31.38L22.68-31.38L22.68-25.32L11.52-25.32L11.52-12.54Q11.52-8.76 12.72-7.14Q13.92-5.52 16.80-5.52L16.80-5.52Q18.78-5.52 20.31-5.94Q21.84-6.36 22.74-6.72L22.74-6.72L23.94-0.96Q22.68-0.42 20.64 0.15Q18.60 0.72 15.84 0.72L15.84 0.72Q12.48 0.72 10.23-0.18Q7.98-1.08 6.66-2.79Q5.34-4.50 4.80-6.93Q4.26-9.36 4.26-12.48L4.26-12.48Z" transform="translate(-4.26, 46.559999999999995)"></path></g></g></g> <g data-gra="path-slogan" fill-rule="" class="tp-slogan" fill="#ffffff" transform="translate(5,53.280006408691406)"><rect x="0" height="1" y="3.580000877380371" width="45.374996185302734"></rect> <rect height="1" y="3.580000877380371" width="45.374996185302734" x="96.30499649047852"></rect> <g transform="translate(48.374996185302734,0)"><g transform="scale(1)"><path d="M1.10-1.72L0.50-1.02C0.85-0.66 1.26-0.38 1.73-0.17C2.20 0.04 2.71 0.14 3.26 0.14C3.68 0.14 4.05 0.09 4.38-0.03C4.71-0.15 4.99-0.31 5.22-0.51C5.45-0.71 5.63-0.95 5.75-1.22C5.88-1.50 5.94-1.79 5.94-2.10C5.94-2.39 5.90-2.64 5.81-2.86C5.73-3.08 5.62-3.27 5.47-3.44C5.33-3.60 5.16-3.75 4.96-3.87C4.76-3.99 4.54-4.10 4.32-4.20L3.20-4.68C3.04-4.74 2.89-4.81 2.74-4.89C2.58-4.97 2.44-5.05 2.32-5.15C2.19-5.25 2.09-5.37 2.01-5.50C1.93-5.63 1.90-5.80 1.90-5.99C1.90-6.35 2.03-6.63 2.30-6.83C2.57-7.04 2.92-7.14 3.36-7.14C3.73-7.14 4.06-7.07 4.35-6.94C4.64-6.81 4.91-6.63 5.15-6.40L5.69-7.04C5.41-7.33 5.07-7.57 4.67-7.75C4.27-7.93 3.83-8.02 3.36-8.02C3-8.02 2.67-7.96 2.37-7.86C2.07-7.76 1.81-7.61 1.59-7.42C1.37-7.23 1.20-7.01 1.07-6.76C0.95-6.50 0.89-6.22 0.89-5.93C0.89-5.64 0.94-5.39 1.03-5.17C1.13-4.95 1.25-4.76 1.40-4.60C1.56-4.44 1.73-4.30 1.92-4.19C2.11-4.08 2.30-3.98 2.48-3.90L3.61-3.41C3.80-3.32 3.97-3.24 4.13-3.16C4.29-3.08 4.43-2.99 4.54-2.89C4.66-2.79 4.75-2.67 4.82-2.53C4.89-2.39 4.92-2.22 4.92-2.02C4.92-1.63 4.78-1.32 4.49-1.09C4.20-0.85 3.80-0.73 3.28-0.73C2.87-0.73 2.47-0.82 2.09-1.00C1.71-1.18 1.38-1.42 1.10-1.72ZM8.68-3.05L8.68 0L9.68 0L9.68-3.05L12.05-7.87L11.00-7.87L10.00-5.65C9.88-5.36 9.75-5.08 9.61-4.80C9.48-4.52 9.34-4.23 9.20-3.94L9.16-3.94C9.02-4.23 8.89-4.52 8.77-4.80C8.65-5.08 8.53-5.36 8.40-5.65L7.38-7.87L6.31-7.87ZM12.95-1.72L12.35-1.02C12.69-0.66 13.10-0.38 13.57-0.17C14.04 0.04 14.56 0.14 15.11 0.14C15.52 0.14 15.90 0.09 16.22-0.03C16.55-0.15 16.83-0.31 17.06-0.51C17.30-0.71 17.47-0.95 17.60-1.22C17.72-1.50 17.78-1.79 17.78-2.10C17.78-2.39 17.74-2.64 17.66-2.86C17.57-3.08 17.46-3.27 17.32-3.44C17.17-3.60 17.00-3.75 16.80-3.87C16.60-3.99 16.39-4.10 16.16-4.20L15.05-4.68C14.89-4.74 14.73-4.81 14.58-4.89C14.43-4.97 14.29-5.05 14.16-5.15C14.03-5.25 13.93-5.37 13.85-5.50C13.78-5.63 13.74-5.80 13.74-5.99C13.74-6.35 13.87-6.63 14.14-6.83C14.41-7.04 14.76-7.14 15.20-7.14C15.57-7.14 15.90-7.07 16.19-6.94C16.49-6.81 16.75-6.63 16.99-6.40L17.53-7.04C17.25-7.33 16.91-7.57 16.51-7.75C16.11-7.93 15.68-8.02 15.20-8.02C14.84-8.02 14.51-7.96 14.21-7.86C13.91-7.76 13.65-7.61 13.43-7.42C13.21-7.23 13.04-7.01 12.92-6.76C12.79-6.50 12.73-6.22 12.73-5.93C12.73-5.64 12.78-5.39 12.88-5.17C12.97-4.95 13.10-4.76 13.25-4.60C13.40-4.44 13.57-4.30 13.76-4.19C13.96-4.08 14.14-3.98 14.33-3.90L15.46-3.41C15.64-3.32 15.81-3.24 15.97-3.16C16.13-3.08 16.27-2.99 16.39-2.89C16.50-2.79 16.59-2.67 16.66-2.53C16.73-2.39 16.76-2.22 16.76-2.02C16.76-1.63 16.62-1.32 16.33-1.09C16.04-0.85 15.64-0.73 15.12-0.73C14.71-0.73 14.32-0.82 13.94-1.00C13.56-1.18 13.23-1.42 12.95-1.72ZM20.72-7.03L20.72 0L21.73 0L21.73-7.03L24.11-7.03L24.11-7.87L18.35-7.87L18.35-7.03ZM25.52-7.87L25.52 0L30.18 0L30.18-0.85L26.52-0.85L26.52-3.71L29.51-3.71L29.51-4.56L26.52-4.56L26.52-7.03L30.06-7.03L30.06-7.87ZM31.85-7.87L31.85 0L32.77 0L32.77-4.33C32.77-4.68 32.76-5.07 32.72-5.50C32.69-5.92 32.66-6.31 32.64-6.66L32.69-6.66L33.31-4.91L34.84-0.79L35.40-0.79L36.91-4.91L37.55-6.66L37.60-6.66C37.56-6.31 37.53-5.92 37.51-5.50C37.48-5.07 37.46-4.68 37.46-4.33L37.46 0L38.41 0L38.41-7.87L37.24-7.87L35.72-3.65L35.17-2.04L35.12-2.04L34.55-3.65L33.02-7.87ZM40.60-1.72L40.00-1.02C40.34-0.66 40.75-0.38 41.22-0.17C41.69 0.04 42.20 0.14 42.76 0.14C43.17 0.14 43.54 0.09 43.87-0.03C44.20-0.15 44.48-0.31 44.71-0.51C44.94-0.71 45.12-0.95 45.25-1.22C45.37-1.50 45.43-1.79 45.43-2.10C45.43-2.39 45.39-2.64 45.31-2.86C45.22-3.08 45.11-3.27 44.96-3.44C44.82-3.60 44.65-3.75 44.45-3.87C44.25-3.99 44.04-4.10 43.81-4.20L42.70-4.68C42.54-4.74 42.38-4.81 42.23-4.89C42.08-4.97 41.94-5.05 41.81-5.15C41.68-5.25 41.58-5.37 41.50-5.50C41.43-5.63 41.39-5.80 41.39-5.99C41.39-6.35 41.52-6.63 41.79-6.83C42.06-7.04 42.41-7.14 42.85-7.14C43.22-7.14 43.55-7.07 43.84-6.94C44.13-6.81 44.40-6.63 44.64-6.40L45.18-7.04C44.90-7.33 44.56-7.57 44.16-7.75C43.76-7.93 43.32-8.02 42.85-8.02C42.49-8.02 42.16-7.96 41.86-7.86C41.56-7.76 41.30-7.61 41.08-7.42C40.86-7.23 40.69-7.01 40.57-6.76C40.44-6.50 40.38-6.22 40.38-5.93C40.38-5.64 40.43-5.39 40.52-5.17C40.62-4.95 40.74-4.76 40.90-4.60C41.05-4.44 41.22-4.30 41.41-4.19C41.60-4.08 41.79-3.98 41.98-3.90L43.10-3.41C43.29-3.32 43.46-3.24 43.62-3.16C43.78-3.08 43.92-2.99 44.03-2.89C44.15-2.79 44.24-2.67 44.31-2.53C44.38-2.39 44.41-2.22 44.41-2.02C44.41-1.63 44.27-1.32 43.98-1.09C43.69-0.85 43.29-0.73 42.77-0.73C42.36-0.73 41.97-0.82 41.59-1.00C41.21-1.18 40.88-1.42 40.60-1.72Z" transform="translate(-0.504, 8.016)"></path></g></g></g></g><defs v-gra="od"></defs></svg>